<svg width="1080" height="1314" viewBox="0 0 1080 1314" fill="none" xmlns="http://www.w3.org/2000/svg">
<circle cx="540" cy="540" r="540" fill="#F1F4F6"/>
<path d="M233.484 595H356.684C359.618 595 362.151 596.067 364.284 598.2C366.418 600.333 367.484 602.867 367.484 605.8V662.2C367.484 665.133 366.418 667.667 364.284 669.8C362.151 671.933 359.618 673 356.684 673H148.284C145.351 673 142.818 671.933 140.684 669.8C138.551 667.667 137.484 665.133 137.484 662.2V403.8C137.484 400.867 138.551 398.333 140.684 396.2C142.818 394.067 145.351 393 148.284 393H353.484C356.418 393 358.951 394.067 361.084 396.2C363.218 398.333 364.284 400.867 364.284 403.8V460.2C364.284 463.133 363.218 465.667 361.084 467.8C358.951 469.933 356.418 471 353.484 471H233.484V496.2H344.684C347.618 496.2 350.151 497.267 352.284 499.4C354.418 501.533 355.484 504.067 355.484 507V559C355.484 561.933 354.418 564.467 352.284 566.6C350.151 568.733 347.618 569.8 344.684 569.8H233.484V595ZM412.409 393H646.809C649.743 393 652.276 394.067 654.409 396.2C656.543 398.333 657.609 400.867 657.609 403.8V468.2C657.609 471.133 656.543 473.667 654.409 475.8C652.276 477.933 649.743 479 646.809 479H580.409V662.2C580.409 665.133 579.343 667.667 577.209 669.8C575.076 671.933 572.543 673 569.609 673H489.609C486.676 673 484.143 671.933 482.009 669.8C479.876 667.667 478.809 665.133 478.809 662.2V479H412.409C409.476 479 406.943 477.933 404.809 475.8C402.676 473.667 401.609 471.133 401.609 468.2V403.8C401.609 400.867 402.676 398.333 404.809 396.2C406.943 394.067 409.476 393 412.409 393ZM791.688 499.4V566.6C791.688 588.2 801.554 599 821.288 599C836.488 599 846.488 591.8 851.288 577.4C852.621 572.867 854.221 569.8 856.088 568.2C858.221 566.6 861.554 565.8 866.088 565.8H947.688C950.088 565.8 952.088 566.733 953.688 568.6C955.554 570.2 956.488 572.2 956.488 574.6C956.488 597.8 949.821 617.267 936.488 633C911.954 662.333 873.688 677 821.688 677C780.888 677 748.354 668.067 724.088 650.2C699.821 632.067 687.688 604.333 687.688 567V499C687.688 462.467 700.088 435 724.888 416.6C749.688 398.2 781.954 389 821.688 389C873.688 389 911.954 403.667 936.488 433C949.821 448.733 956.488 468.2 956.488 491.4C956.488 493.8 955.554 495.933 953.688 497.8C952.088 499.4 950.088 500.2 947.688 500.2H866.088C861.821 500.2 858.621 499.4 856.488 497.8C854.621 496.2 852.888 493.133 851.288 488.6C846.221 474.2 836.221 467 821.288 467C801.554 467 791.688 477.8 791.688 499.4Z" fill="#00CCCC"/>
</svg>
