<svg width="1080" height="1080" viewBox="0 0 1080 1080" fill="none" xmlns="http://www.w3.org/2000/svg">
<circle cx="540" cy="540" r="540" fill="#00CCCC"/>
<path d="M686.049 609.1C698.183 617.967 704.249 631.967 704.249 651.1C704.249 669.767 700.049 685.867 691.649 699.4C683.716 712.467 671.816 724.133 655.949 734.4C621.883 756.333 574.983 767.3 515.249 767.3C455.983 767.3 410.016 751.9 377.349 721.1C345.149 689.833 329.049 646.667 329.049 591.6C329.049 513.667 349.349 445.067 389.949 385.8C420.749 341.933 463.683 310.667 518.749 292C547.216 282.667 575.449 278 603.449 278C631.449 278 654.083 279.867 671.349 283.6C688.616 287.333 703.783 292.933 716.849 300.4C745.316 316.733 759.549 337.967 759.549 364.1C759.549 387.9 748.349 408.667 725.949 426.4C705.416 442.267 686.749 450.2 669.949 450.2C653.149 450.2 641.249 449.033 634.249 446.7C636.116 429.9 637.049 416.133 637.049 405.4C637.049 394.2 636.816 384.633 636.349 376.7C635.883 368.767 634.483 361.067 632.149 353.6C627.483 336.333 617.916 327.7 603.449 327.7C589.449 327.7 575.216 334.467 560.749 348C546.749 361.067 533.683 378.8 521.549 401.2C494.016 452.067 480.249 507.6 480.249 567.8C480.249 596.733 488.416 619.6 504.749 636.4C521.083 652.733 546.749 660.9 581.749 660.9C607.883 660.9 633.316 652.267 658.049 635C668.783 627.533 678.116 618.9 686.049 609.1Z" fill="white"/>
</svg>
